<svg width="20" height="20" viewBox="0 0 20 20" fill="none" xmlns="http://www.w3.org/2000/svg">
<path d="M0.588624 16.2591C0.651229 16.3217 0.729022 16.3669 0.814372 16.3903C0.899723 16.4138 0.989701 16.4146 1.07548 16.3928L4.65834 15.5082C6.35945 16.4159 8.32994 16.6825 10.2111 16.2595C12.0922 15.8365 13.7589 14.752 14.9077 13.2035C16.0565 11.655 16.611 9.74544 16.4703 7.82247C16.3296 5.89951 15.503 4.09101 14.141 2.72623C12.7791 1.36145 10.9723 0.531138 9.04961 0.386463C7.12694 0.241787 5.21625 0.792368 3.66538 1.93797C2.11451 3.08357 1.0266 4.748 0.599716 6.62826C0.172828 8.50851 0.435348 10.4795 1.33948 12.1825L0.451481 15.7722C0.429448 15.8583 0.430526 15.9486 0.454608 16.0341C0.47869 16.1196 0.52492 16.1972 0.588624 16.2591ZM5.63891 5.63738C6.31454 4.962 7.22134 4.56826 8.17609 4.5357C9.13084 4.50314 10.0624 4.83419 10.7824 5.46197C11.5025 6.08974 11.9574 6.96744 12.0553 7.91772C12.1532 8.86799 11.8867 9.82 11.3098 10.5814L12.1703 11.442L11.4435 12.1688L10.5829 11.3082C9.82153 11.8852 8.86952 12.1517 7.91925 12.0538C6.96898 11.9559 6.09128 11.501 5.4635 10.7809C4.83573 10.0608 4.50467 9.1293 4.53723 8.17455C4.56979 7.21981 4.96354 6.31301 5.63891 5.63738Z" fill="white"/>
<path d="M17.0218 9.86133C16.9642 10.222 16.8818 10.5783 16.7749 10.9276C16.3578 12.3089 15.6055 13.5655 14.5849 14.5855C13.5643 15.6054 12.3073 16.357 10.9258 16.7733C10.5776 16.8802 10.2225 16.9627 9.86292 17.0202C10.5389 18.1725 11.631 19.0217 12.9143 19.3929C14.1976 19.7642 15.5745 19.6291 16.7612 19.0156L18.9418 19.5539C19.0275 19.5757 19.1175 19.5749 19.2029 19.5514C19.2882 19.528 19.366 19.4827 19.4286 19.4202C19.491 19.3568 19.5361 19.2784 19.5595 19.1925C19.583 19.1067 19.5839 19.0162 19.5623 18.9299L19.024 16.7528C19.6329 15.5655 19.7647 14.1904 19.3925 12.9091C19.0202 11.6278 18.172 10.5374 17.0218 9.86133Z" fill="white"/>
<path d="M9.84528 10.5709L9.04642 9.77204L9.77328 9.04175L10.5721 9.84061C10.9531 9.27608 11.11 8.58979 11.012 7.91582C10.914 7.24185 10.5682 6.62862 10.0422 6.19597C9.51627 5.76331 8.84787 5.5423 8.16766 5.57614C7.48744 5.60997 6.84427 5.8962 6.36383 6.37892C5.88338 6.86163 5.60017 7.50613 5.56954 8.1865C5.53891 8.86687 5.76306 9.53422 6.19819 10.0582C6.63332 10.5821 7.24816 10.925 7.92259 11.0198C8.59701 11.1146 9.28256 10.9545 9.84528 10.5709Z" fill="white"/>
</svg>
