<svg width="20" height="18" viewBox="0 0 20 18" fill="none" xmlns="http://www.w3.org/2000/svg">
<path d="M19.8725 7.11658L16.3346 1.08815C16.1724 0.811767 15.8176 0.718033 15.5401 0.878286L13.4198 2.10242L11.51 1.39995C11.4397 1.37409 11.3685 1.3524 11.2968 1.33416C10.759 1.19747 10.1891 1.27418 9.7027 1.55499L6.54572 3.37769C5.84841 3.78026 5.60951 4.67192 6.01209 5.36923C6.41467 6.06654 7.30632 6.30544 8.00363 5.90286L11.4679 3.90273C11.8288 3.69438 12.2734 3.69438 12.6342 3.90273C12.6342 3.90273 19.6138 7.93375 19.6362 7.94759L19.7402 7.86198C19.9615 7.6798 20.0176 7.3638 19.8725 7.11658Z" fill="white"/>
<path d="M18.9855 8.91647L12.051 4.91285L8.58674 6.91295C8.18242 7.14641 7.73361 7.26565 7.2789 7.26565C7.05092 7.26565 6.82151 7.23567 6.59543 7.17514C5.91834 6.9937 5.3524 6.55947 5.00196 5.9524C4.65147 5.34541 4.5584 4.63818 4.73984 3.96109C4.8896 3.40211 5.21205 2.91929 5.66144 2.57052L4.2316 1.74499C3.94651 1.58038 3.58172 1.68427 3.42609 1.97437L0.116712 8.14432C-0.0321502 8.42187 0.066249 8.76753 0.339053 8.92498L0.642182 9.09997L1.17422 8.17841C1.6156 7.41389 2.43852 6.93896 3.32182 6.93896C3.75523 6.93896 4.18335 7.05384 4.55984 7.27125C4.77643 7.39628 4.96961 7.55039 5.1355 7.72817C5.40364 7.63028 5.69005 7.57768 5.98327 7.57768C6.41667 7.57768 6.84476 7.69256 7.22128 7.90997C7.79457 8.24093 8.20469 8.77542 8.37603 9.41488C8.39488 9.48521 8.41001 9.55589 8.4226 9.62672C8.66108 9.68181 8.89143 9.77208 9.10514 9.89548C9.67847 10.2264 10.0886 10.7609 10.2599 11.4004C10.2788 11.4707 10.2939 11.5414 10.3065 11.6122C10.545 11.6673 10.7753 11.7576 10.989 11.881C12.1725 12.5643 12.5795 14.0831 11.8962 15.2666L11.1697 16.5249L12.727 17.424C13.3545 17.7863 14.157 17.5713 14.5194 16.9437C14.8817 16.3161 14.6667 15.5136 14.0391 15.1513L15.0492 15.7345C15.6767 16.0968 16.4792 15.8818 16.8416 15.2542C17.2039 14.6266 16.9889 13.8241 16.3613 13.4618L17.0347 13.8506C17.6623 14.2129 18.4648 13.9979 18.8271 13.3703C19.1894 12.7427 18.9744 11.9402 18.3468 11.5779L17.6734 11.1891C18.301 11.5515 19.1035 11.3364 19.4658 10.7088C19.8281 10.0813 19.6131 9.27881 18.9855 8.91647Z" fill="white"/>
<path d="M10.4056 12.891C9.77804 12.5287 8.97557 12.7437 8.61323 13.3712L9.002 12.6979C9.36434 12.0703 9.14931 11.2679 8.52175 10.9055C7.89419 10.5432 7.09172 10.7582 6.72938 11.3858L7.11815 10.7124C7.48049 10.0848 7.26546 9.28234 6.6379 8.92C6.01033 8.55766 5.20786 8.77269 4.84552 9.40025L4.45675 10.0736C4.81905 9.44605 4.60405 8.64358 3.97645 8.28124C3.34889 7.9189 2.54642 8.13393 2.18408 8.76149L0.774768 11.2025C0.412429 11.8301 0.627461 12.6326 1.25502 12.9949C1.88259 13.3572 2.6851 13.1422 3.0474 12.5146C2.68506 13.1421 2.90009 13.9447 3.52765 14.307C4.15521 14.6693 4.95772 14.4543 5.32002 13.8267C4.95769 14.4542 5.17272 15.2567 5.80032 15.619C6.42788 15.9814 7.23035 15.7663 7.59269 15.1387C7.23035 15.7663 7.44538 16.5688 8.07295 16.9311C8.70051 17.2935 9.50302 17.0784 9.86532 16.4508L10.8859 14.6832C11.2482 14.0558 11.0332 13.2533 10.4056 12.891Z" fill="white"/>
</svg>
