<svg width="20" height="20" viewBox="0 0 20 20" fill="none" xmlns="http://www.w3.org/2000/svg">
<path fill-rule="evenodd" clip-rule="evenodd" d="M19.691 19.691C20.1027 19.2793 20.1027 18.6118 19.691 18.2001L11.491 10L19.6912 1.79982C20.1029 1.3881 20.1029 0.720587 19.6912 0.308875C19.2795 -0.102837 18.6119 -0.102837 18.2002 0.308875L10 8.50908L1.79973 0.308784C1.38801 -0.102928 0.720496 -0.102928 0.308784 0.308784C-0.102928 0.720496 -0.102928 1.38801 0.308784 1.79972L8.50908 10L0.308938 18.2002C-0.102774 18.6119 -0.102774 19.2794 0.308938 19.6911C0.72065 20.1028 1.38817 20.1028 1.79988 19.6911L10 11.491L18.2001 19.691C18.6118 20.1027 19.2793 20.1027 19.691 19.691Z" fill="white"/>
</svg>
