<svg width="16" height="11" viewBox="0 0 16 11" fill="none" xmlns="http://www.w3.org/2000/svg">
<path d="M2.00584 1.10856e-05C1.5321 1.12591e-05 1.32508 0.597504 1.69631 0.891817L7.69087 5.64433C7.87215 5.78805 8.12835 5.78864 8.3103 5.64577L14.3625 0.893249C14.736 0.599944 14.5326 1.01988e-06 14.0577 1.5037e-06C11.4019 4.20934e-06 5.67465 9.742e-06 2.00584 1.10856e-05Z" fill="white"/>
<path d="M8.36055 7.02679C8.15002 7.19273 7.8471 7.19273 7.63657 7.02679L0.810663 1.61411C0.482941 1.35424 0 1.58764 0 2.00589V10.45C0 10.7538 0.255837 11 0.571439 11H15.4286C15.7442 11 16 10.7538 16 10.45V2.07843C16 1.66174 15.5202 1.42788 15.192 1.68456L8.36055 7.02679Z" fill="white"/>
</svg>
