<svg width="15" height="19" viewBox="0 0 15 19" fill="none" xmlns="http://www.w3.org/2000/svg">
<path d="M12.1203 5.14131C12.0592 5.10112 11.9866 5.0816 11.9134 5.08567C11.8402 5.08974 11.7703 5.11717 11.714 5.1639C11.6577 5.21062 11.618 5.27415 11.6009 5.34505C11.5838 5.41595 11.5902 5.49045 11.619 5.55749C11.8442 6.05248 11.9454 6.59435 11.914 7.13675C11.8827 7.67914 11.7196 8.2059 11.4389 8.67196C10.326 3.3548 7.87622 0.26186 7.76771 0.126762C7.7293 0.0800221 7.67924 0.0441155 7.62251 0.0226234C7.56579 0.0011313 7.5044 -0.00519509 7.44445 0.00427552C7.3845 0.0144072 7.32837 0.0402795 7.28184 0.079217C7.23532 0.118154 7.2001 0.168744 7.17982 0.225755C7.16683 0.262504 5.84354 3.9213 2.86418 6.17097C-0.13989 8.43956 -0.00404616 11.4203 0.00260114 11.5266C0.00049868 12.5072 0.192906 13.4787 0.568809 14.3853C0.944712 15.2919 1.49673 16.1159 2.19326 16.8101C2.88978 17.5043 3.71714 18.055 4.62797 18.4308C5.5388 18.8066 6.5152 19 7.50129 19C8.48738 19 9.46379 18.8066 10.3746 18.4308C11.2854 18.055 12.1128 17.5043 12.8093 16.8101C13.5059 16.1159 14.0579 15.2919 14.4338 14.3853C14.8097 13.4787 15.0021 12.5072 15 11.5266V11.5193C14.903 7.02251 12.2339 5.21613 12.1203 5.14131ZM7.50039 18.3071C6.68699 18.3062 5.90715 17.9845 5.33199 17.4125C4.75683 16.8405 4.4333 16.0649 4.4324 15.256C4.4324 12.753 7.13186 9.73257 7.24673 9.6051C7.27959 9.57117 7.31899 9.54419 7.36257 9.52575C7.40615 9.50732 7.45303 9.49782 7.50039 9.49782C7.54775 9.49782 7.59462 9.50732 7.63821 9.52575C7.68179 9.54419 7.72119 9.57117 7.75404 9.6051C7.86892 9.73243 10.5684 12.7529 10.5684 15.256C10.5675 16.0649 10.244 16.8405 9.66879 17.4125C9.09362 17.9845 8.31379 18.3062 7.50039 18.3071Z" fill="white"/>
</svg>
