<svg width="20" height="20" viewBox="0 0 20 20" fill="none" xmlns="http://www.w3.org/2000/svg">
<path d="M10 0.399902C4.70637 0.399902 0.400024 4.70625 0.400024 9.9999C0.400024 15.2936 4.70637 19.5999 10 19.5999C15.2937 19.5999 19.6 15.2936 19.6 9.9999C19.6 4.70625 15.2937 0.399902 10 0.399902ZM14.8656 7.96553L9.6656 13.1654C9.50959 13.3214 9.30481 13.4 9.10002 13.4C8.89524 13.4 8.69045 13.3214 8.53445 13.1654L5.9345 10.5655C5.62161 10.2527 5.62161 9.74707 5.9345 9.43433C6.24724 9.12144 6.75276 9.12144 7.06565 9.43433L9.10002 11.4687L13.7345 6.83437C14.0472 6.52148 14.5528 6.52148 14.8656 6.83437C15.1784 7.14712 15.1784 7.65264 14.8656 7.96553Z" fill="white"/>
</svg>
