<svg width="17" height="15" viewBox="0 0 17 15" fill="none" xmlns="http://www.w3.org/2000/svg">
<path d="M5.66636 4.73666C8.90945 4.73666 11.3327 3.48632 11.3327 2.3683C11.3327 1.2504 8.90939 0 5.66636 0C2.42333 0 5.39741e-05 1.2504 5.39741e-05 2.3683C5.39741e-05 3.48632 2.42327 4.73666 5.66636 4.73666Z" fill="white"/>
<path d="M5.66636 14.2104C6.13971 14.2104 6.59531 14.1836 7.02867 14.1347C6.66337 13.6768 6.36128 13.1687 6.13496 12.6231C5.97946 12.6282 5.82343 12.6317 5.66631 12.6317C3.81321 12.6317 2.0583 12.2736 0.72498 11.6234C0.46245 11.4954 0.220862 11.3578 5.39741e-05 11.2122V11.8421C5.39741e-05 12.96 2.42327 14.2104 5.66636 14.2104Z" fill="white"/>
<path d="M5.66636 11.0525C5.68299 11.0525 5.69934 11.0522 5.71591 11.0522C5.68272 10.7934 5.66539 10.5299 5.66539 10.2624C5.66539 9.99514 5.68266 9.73173 5.71591 9.47317C5.69934 9.47317 5.68293 9.47375 5.66636 9.47375C3.81327 9.47375 2.05841 9.11564 0.725034 8.46544C0.46245 8.33742 0.220808 8.19987 0 8.05432V8.68415C5.39741e-05 9.80211 2.42327 11.0525 5.66636 11.0525Z" fill="white"/>
<path d="M5.66636 7.89451C5.82699 7.89451 5.98546 7.89135 6.14193 7.88535C6.39323 7.28405 6.73667 6.72865 7.1554 6.2361C6.6706 6.28821 6.17237 6.31585 5.66636 6.31585C3.81327 6.31585 2.05841 5.95774 0.725034 5.30754C0.46245 5.17947 0.220808 5.04197 0 4.89637V5.52625C5.39741e-05 6.64421 2.42327 7.89451 5.66636 7.89451Z" fill="white"/>
<path d="M8.09519 7.64536C7.7449 8.15897 7.49463 8.74269 7.37151 9.36994C7.31468 9.65909 7.28467 9.9574 7.28467 10.2624C7.28467 10.4918 7.30183 10.7173 7.33427 10.938C7.41399 11.4803 7.58816 11.993 7.84001 12.46C8.10426 12.9502 8.45385 13.39 8.86962 13.7603C9.73363 14.5299 10.8827 15 12.1423 15C14.8209 15 17 12.8747 17 10.2624C17 7.6501 14.8209 5.52489 12.1423 5.52489C11.8655 5.52489 11.5941 5.54794 11.3297 5.59153C9.98315 5.81361 8.82336 6.57789 8.09519 7.64536Z" fill="white"/>
</svg>
