<svg width="16" height="16" viewBox="0 0 16 16" fill="none" xmlns="http://www.w3.org/2000/svg">
<path d="M14.9274 3.98429C14.212 2.75868 13.2416 1.78829 12.0159 1.07292C10.79 0.357591 9.45182 0 8.00025 0C6.54883 0 5.21022 0.357591 3.98457 1.07292C2.75884 1.78818 1.78844 2.75857 1.07303 3.98429C0.357593 5.21009 0 6.54869 0 8C0 9.45138 0.357702 10.7898 1.07293 12.0156C1.78829 13.2412 2.75869 14.2116 3.98442 14.9271C5.21022 15.6424 6.54872 16 8.00011 16C9.4515 16 10.7901 15.6424 12.0159 14.9271C13.2415 14.2119 14.2119 13.2412 14.9272 12.0156C15.6424 10.7899 16 9.45131 16 8C16 6.54855 15.6424 5.2099 14.9274 3.98429ZM12.667 8.66666C12.667 8.84719 12.6009 9.00364 12.4689 9.13538C12.3368 9.26724 12.1806 9.33342 12.0002 9.33342H9.33343V11.9999C9.33343 12.1804 9.26728 12.3367 9.13539 12.4689C9.00357 12.6007 8.84726 12.6667 8.66666 12.6667H7.33338C7.15285 12.6667 6.99658 12.6007 6.86465 12.4689C6.73268 12.3368 6.66668 12.1805 6.66668 11.9999V9.33342H4C3.81947 9.33342 3.66328 9.26728 3.53127 9.13538C3.39934 9.00367 3.33338 8.84722 3.33338 8.66666V7.33323C3.33338 7.1527 3.39938 6.99644 3.53127 6.86451C3.66324 6.73254 3.81943 6.66654 4 6.66654H6.66679V3.99987C6.66679 3.81931 6.73279 3.66315 6.86476 3.53115C6.99669 3.39922 7.15292 3.33325 7.33348 3.33325H8.66692C8.84745 3.33325 9.00378 3.39925 9.13564 3.53115C9.2675 3.66311 9.33369 3.81931 9.33369 3.99987V6.66654H12.0002C12.1807 6.66654 12.337 6.73254 12.4689 6.86451C12.6009 6.9964 12.667 7.15267 12.667 7.33323V8.66666Z" fill="white"/>
</svg>
