<svg width="15" height="18" viewBox="0 0 15 18" fill="none" xmlns="http://www.w3.org/2000/svg">
<path d="M5.25661 0V1.50154H6.7568V2.25229C7.28185 2.17723 7.73191 2.17723 8.25699 2.25229V1.50154H9.75718V0H5.25661Z" fill="white"/>
<path d="M12.6075 4.95505L13.1326 4.42952L13.7326 5.03015L14.7828 3.97906L12.5325 1.72677L11.4824 2.77785L12.0825 3.37844L11.4074 4.05413C7.80694 1.8769 3.15637 3.00305 1.05613 6.60672C-1.04412 10.2104 0.0809843 14.715 3.60642 16.8922C7.13186 19.0694 11.7824 17.9433 13.8827 14.3396C15.7579 11.2615 15.2328 7.35751 12.6075 4.95505ZM7.50688 15.691C4.58153 15.691 2.25626 13.3636 2.25626 10.4357C2.25626 7.50767 4.58153 5.18028 7.50688 5.18028V10.4356H12.7575C12.7575 13.3636 10.4322 15.691 7.50688 15.691Z" fill="white"/>
</svg>
