<svg width="22" height="24" viewBox="0 0 22 24" fill="none" xmlns="http://www.w3.org/2000/svg">
<path d="M9.86763 17.6702L7.74507 19.785C6.86763 20.6625 5.43501 20.6625 4.55757 19.785L2.43501 17.6625C1.56489 16.7927 1.56489 15.3601 2.43501 14.4827L4.55757 12.3601L9.86763 17.6702ZM19.9399 11.8276L10.3924 2.28748C10.2276 2.11499 9.98738 2.03259 9.75484 2.06995C9.51497 2.10767 9.31246 2.25012 9.20003 2.45996L4.90254 10.5825L11.6599 17.3402L19.7597 13.02C19.9699 12.9153 20.1128 12.7051 20.1501 12.4725C20.1875 12.2327 20.1047 12.0001 19.9399 11.8276ZM3.49995 20.8427L1.37739 18.7201C1.07747 18.4202 0.844922 18.0902 0.672437 17.7302C0.297436 18.7802 0.537305 20.0026 1.37739 20.8427C1.94758 21.4125 2.69758 21.7278 3.49995 21.7278C3.84492 21.7278 4.18257 21.6677 4.49751 21.5553C4.12984 21.3824 3.79256 21.1426 3.49995 20.8427ZM12.2524 20.0476L10.9326 18.7278L8.80232 20.85C8.62251 21.0302 8.42732 21.1876 8.21749 21.3228L9.59737 22.7026C9.95003 23.0553 10.4224 23.2501 10.9249 23.2501C11.4273 23.2501 11.9001 23.0553 12.2524 22.7026C12.9797 21.9677 12.9797 20.7826 12.2524 20.0476V20.0476ZM14.75 3.00049V1.50049C14.75 1.0863 14.4145 0.750488 14 0.750488C13.5854 0.750488 13.25 1.0863 13.25 1.50049V3.00049C13.25 3.41467 13.5854 3.75049 14 3.75049C14.4145 3.75049 14.75 3.41467 14.75 3.00049ZM21.5 8.25012C21.5 7.83594 21.1645 7.50012 20.75 7.50012H19.25C18.8354 7.50012 18.5 7.83594 18.5 8.25012C18.5 8.66431 18.8354 9.00012 19.25 9.00012H20.75C21.1645 9.00012 21.5 8.66431 21.5 8.25012ZM17.5302 5.7804L19.0302 4.2804C19.3232 3.98743 19.3232 3.51282 19.0302 3.21985C18.7373 2.92688 18.2627 2.92688 17.9697 3.21985L16.4697 4.71985C16.1767 5.01282 16.1767 5.48743 16.4697 5.7804C16.6162 5.92688 16.8081 6.00012 17 6.00012C17.1919 6.00012 17.3838 5.92688 17.5302 5.7804V5.7804Z" fill="white"/>
</svg>
