<svg width="16" height="16" viewBox="0 0 16 16" fill="none" xmlns="http://www.w3.org/2000/svg">
<path fill-rule="evenodd" clip-rule="evenodd" d="M8 16C3.58173 16 -5.96046e-07 12.4183 -5.96046e-07 8C-5.96046e-07 3.58172 3.58173 0 8 0C12.4183 0 16 3.58172 16 8C16 12.4183 12.4183 16 8 16ZM6.82116 6.63011H5.47112C4.8461 6.63011 4.52109 5.87431 4.99609 5.42083L7.34617 3.05266C7.72117 2.67476 8.2962 2.67476 8.6712 3.05266L11.0213 5.42083C11.4713 5.87431 11.1463 6.63011 10.5213 6.63011H9.17122V12.3994C9.17122 12.8529 8.7962 13.2308 8.34619 13.2308H7.64616C7.19616 13.2308 6.82116 12.8529 6.82116 12.3994V6.63011Z" fill="white"/>
</svg>
