<svg width="16" height="16" viewBox="0 0 16 16" fill="none" xmlns="http://www.w3.org/2000/svg">
<path d="M10 7.98279C10 9.0874 9.10461 9.98279 8 9.98279C6.89539 9.98279 6 9.0874 6 7.98279C6 6.87817 6.89539 5.98279 8 5.98279C9.10461 5.98279 10 6.87817 10 7.98279Z" fill="url(#paint0_linear_662_17107)"/>
<path d="M15.7527 7.45873L12.4193 4.7921C12.4014 4.77745 12.3813 4.76415 12.3621 4.75206C11.9041 4.48143 11.3334 4.82213 11.3334 5.31615V10.6494C11.3334 11.0168 11.6327 11.3161 12 11.3161C12.126 11.3161 12.2446 11.2828 12.3613 11.2135C12.3813 11.2014 12.4006 11.1881 12.4187 11.1734L15.7947 8.46813C15.9274 8.33482 16 8.16283 16 7.98277C16 7.80272 15.9274 7.63072 15.7527 7.45873Z" fill="url(#paint1_linear_662_17107)"/>
<path d="M3.63867 4.75207C3.61865 4.76416 3.59937 4.77746 3.5813 4.79211L0.205322 7.49744C0.0726319 7.63074 0 7.80274 0 7.98279C0 8.16285 0.0726319 8.33484 0.247314 8.50684L3.58069 11.1735C3.59863 11.1881 3.61865 11.2014 3.63794 11.2135C3.75537 11.2828 3.87402 11.3162 4 11.3162C4.36731 11.3162 4.66663 11.0169 4.66663 10.6494V5.31616C4.66663 4.82214 4.09668 4.48083 3.63867 4.75207Z" fill="url(#paint2_linear_662_17107)"/>
<defs>
<linearGradient id="paint0_linear_662_17107" x1="9.83333" y1="9.5091" x2="6.00034" y2="9.29535" gradientUnits="userSpaceOnUse">
<stop stop-color="#04AD79"/>
<stop offset="1" stop-color="#00AE76"/>
</linearGradient>
<linearGradient id="paint1_linear_662_17107" x1="15.8056" y1="10.5275" x2="11.3267" y2="10.3525" gradientUnits="userSpaceOnUse">
<stop stop-color="#04AD79"/>
<stop offset="1" stop-color="#00AE76"/>
</linearGradient>
<linearGradient id="paint2_linear_662_17107" x1="4.47218" y1="10.5275" x2="-0.0066746" y2="10.3525" gradientUnits="userSpaceOnUse">
<stop stop-color="#04AD79"/>
<stop offset="1" stop-color="#00AE76"/>
</linearGradient>
</defs>
</svg>
