<svg width="19" height="15" viewBox="0 0 19 15" fill="none" xmlns="http://www.w3.org/2000/svg">
<path d="M17.7157 0.154211C17.9203 0.0796445 18.1496 0.119512 18.315 0.257571C18.4805 0.395629 18.5557 0.610469 18.5105 0.817188C17.9158 3.55991 16.3307 11.1915 15.6772 14.2067C15.6156 14.4894 15.4111 14.7227 15.1328 14.8268C14.8546 14.9302 14.5426 14.8881 14.3005 14.7198C12.777 13.6544 10.0911 11.7209 10.0911 11.7209C10.0911 11.7209 8.67748 13.0313 7.76312 13.8789C7.60146 14.0287 7.36986 14.0871 7.1533 14.0317C6.93599 13.9756 6.77132 13.8132 6.69988 13.6064C6.13067 11.9601 5.03886 8.72271 5.03886 8.72271C5.03886 8.72271 2.70259 7.99551 0.92276 7.4728C0.664846 7.39676 0.485885 7.17011 0.476862 6.90875C0.46859 6.64814 0.632512 6.41041 0.884411 6.31887C4.85313 4.877 14.5629 1.30002 17.7157 0.154211ZM14.9652 2.70571C11.7424 4.72639 6.02164 8.31371 6.02164 8.31371L7.28414 12.4023L7.56461 9.81316C7.56461 9.81316 12.4424 5.49347 15.2231 3.0313C15.3043 2.95894 15.3156 2.83787 15.2479 2.75296C15.181 2.66806 15.0577 2.64813 14.9652 2.70571Z" fill="white"/>
</svg>
