<svg width="16" height="16" viewBox="0 0 16 16" fill="none" xmlns="http://www.w3.org/2000/svg">
<path d="M8 0C6.41775 0 4.87103 0.469192 3.55544 1.34824C2.23985 2.22729 1.21447 3.47672 0.608967 4.93853C0.00346627 6.40034 -0.15496 8.00887 0.153721 9.56072C0.462403 11.1126 1.22433 12.538 2.34315 13.6569C3.46197 14.7757 4.88743 15.5376 6.43928 15.8463C7.99113 16.155 9.59966 15.9965 11.0615 15.391C12.5233 14.7855 13.7727 13.7602 14.6518 12.4446C15.5308 11.129 16 9.58225 16 8C15.9976 5.87901 15.1539 3.8456 13.6542 2.34583C12.1544 0.846071 10.121 0.00243493 8 0ZM10.8422 10.3156L7.64216 8.7156C7.50928 8.64914 7.39753 8.54699 7.31944 8.4206C7.24134 8.29421 7.19999 8.14857 7.2 8V4C7.2 3.78783 7.28429 3.58434 7.43432 3.43431C7.58435 3.28428 7.78783 3.2 8 3.2C8.21218 3.2 8.41566 3.28428 8.56569 3.43431C8.71572 3.58434 8.8 3.78783 8.8 4V7.50544L11.5578 8.88432C11.7476 8.97922 11.892 9.14564 11.9591 9.34695C12.0262 9.54827 12.0105 9.768 11.9156 9.9578C11.8207 10.1476 11.6543 10.2919 11.453 10.359C11.2517 10.4261 11.032 10.4105 10.8422 10.3156Z" fill="white"/>
</svg>
