<svg width="20" height="17" viewBox="0 0 20 17" fill="none" xmlns="http://www.w3.org/2000/svg">
<path d="M19.0509 2.70625C18.3659 3.00976 17.6301 3.21484 16.8565 3.30754C17.6547 2.82994 18.2519 2.07827 18.5365 1.19277C17.7867 1.63819 16.9659 1.95172 16.1101 2.11972C15.5345 1.5052 14.7722 1.09788 13.9414 0.961009C13.1107 0.824138 12.258 0.965371 11.5157 1.36278C10.7734 1.76019 10.1831 2.39154 9.83644 3.15882C9.48976 3.92609 9.40609 4.78635 9.59842 5.60605C8.07895 5.52976 6.59249 5.13482 5.23553 4.44687C3.87856 3.75892 2.68142 2.79333 1.72178 1.61277C1.39365 2.17878 1.20498 2.83504 1.20498 3.53394C1.20462 4.16312 1.35956 4.78266 1.65606 5.33759C1.95255 5.89252 2.38144 6.36569 2.90467 6.71511C2.29787 6.69581 1.70445 6.53184 1.17381 6.23687V6.28609C1.17375 7.16853 1.47899 8.02382 2.03775 8.70683C2.59651 9.38984 3.37436 9.85849 4.23932 10.0333C3.67641 10.1856 3.08624 10.2081 2.51338 10.0989C2.75742 10.8582 3.23279 11.5222 3.87294 11.9979C4.51309 12.4736 5.28597 12.7372 6.08338 12.7518C4.72973 13.8144 3.05798 14.3909 1.33705 14.3883C1.03221 14.3884 0.727624 14.3706 0.424866 14.335C2.1717 15.4581 4.20515 16.0542 6.2819 16.0519C13.312 16.0519 17.1551 10.2293 17.1551 5.17949C17.1551 5.01543 17.151 4.84972 17.1437 4.68566C17.8912 4.14505 18.5365 3.47561 19.0492 2.70871L19.0509 2.70625Z" fill="white"/>
</svg>
