<svg width="18" height="18" viewBox="0 0 18 18" fill="none" xmlns="http://www.w3.org/2000/svg">
<path d="M8.22142 0.500328C8.54465 -0.166777 9.45535 -0.166776 9.77858 0.50033L11.9256 4.93149C12.0525 5.19342 12.2921 5.37553 12.5694 5.42087L17.261 6.18793C17.9673 6.30342 18.2487 7.20958 17.7421 7.73736L14.3776 11.243C14.1787 11.4503 14.0872 11.7449 14.1317 12.0349L14.8841 16.9401C14.9974 17.6786 14.2607 18.2386 13.6244 17.8977L9.39789 15.6332C9.14806 15.4993 8.85194 15.4993 8.60211 15.6332L4.37564 17.8977C3.73935 18.2386 3.00258 17.6786 3.11587 16.9401L3.86834 12.0349C3.91282 11.7449 3.82132 11.4503 3.62243 11.243L0.257853 7.73736C-0.248679 7.20958 0.0327421 6.30342 0.739045 6.18793L5.43057 5.42087C5.70789 5.37553 5.94746 5.19342 6.07437 4.93149L8.22142 0.500328Z" fill="white"/>
</svg>
